<?xml version="1.0" encoding="UTF-8"?>
<svg width="60px" height="29px" viewBox="0 0 60 29" version="1.1" xmlns="http://www.w3.org/2000/svg" xmlns:xlink="http://www.w3.org/1999/xlink">
    <!-- Generator: Sketch 51.1 (57501) - http://www.bohemiancoding.com/sketch -->
    <title>minilogo_blue</title>
    <desc>Created with Sketch.</desc>
    <defs></defs>
    <g id="minilogo_blue" stroke="none" stroke-width="1" fill="none" fill-rule="evenodd">
        <g id="Group" fill="#FFFFFF">
            <g id="Group-Copy-2">
                <path d="M53.4765483,21.815889 C53.4765483,25.5611602 50.4371486,28.9319042 44.945506,28.9319042 C39.9374042,28.9319042 36.0690773,26.3442623 36,21.8499369 L41.180795,21.8499369 C41.3189495,23.7566204 42.5968789,25.0163934 44.8418901,25.0163934 C47.1214398,25.0163934 48.4684465,23.8247163 48.4684465,22.1223203 C48.4684465,16.9810845 36.0345386,20.0794451 36.0690773,11.4653216 C36.0690773,7.17528373 39.5920178,4.58764187 44.565581,4.58764187 C49.5046055,4.58764187 52.8893915,7.07313997 53.2002392,11.3631778 L47.8812898,11.3631778 C47.7776739,9.79697352 46.4997444,8.57124842 44.4274265,8.5372005 C42.5278016,8.46910467 41.1117177,9.38839849 41.1117177,11.3291299 C41.1117177,16.0958386 53.4765483,13.4401009 53.4765483,21.815889 Z" id="Serein."></path>
                <path d="M13.3446659,0 L20.8314655,-1.11022302e-16 C21.0324476,-1.47942112e-16 21.213895,0.120340244 21.2920806,0.305490996 L33.1159492,28.305491 C33.2233735,28.5598817 33.1042338,28.8531907 32.8498431,28.9606151 C32.7882896,28.9866079 32.7221507,29 32.6553341,29 L25.1685345,29 C24.9675524,29 24.786105,28.8796598 24.7079194,28.694509 L12.8840508,0.694509004 C12.7766265,0.440118323 12.8957662,0.146809282 13.1501569,0.039384925 C13.2117104,0.013392057 13.2778493,-3.76304045e-16 13.3446659,-3.88578059e-16 Z" id="Rectangle" fill-rule="nonzero"></path>
                <path d="M0.770649257,0 L8.73442174,-4.4408921e-16 C8.93174333,-4.80336598e-16 9.11061035,0.116049568 9.19102146,0.296243534 L21.6859505,28.2962435 C21.7984821,28.5484166 21.6852803,28.8440681 21.4331072,28.9565997 C21.368989,28.9852123 21.2995635,29 21.2293507,29 L13.2655783,29 C13.0682567,29 12.8893896,28.8839504 12.8089785,28.7037565 L0.314049539,0.703756466 C0.20151795,0.451583405 0.314719729,0.155931871 0.56689279,0.0434002821 C0.631010998,0.0147876944 0.700436546,-4.31191344e-16 0.770649257,-4.4408921e-16 Z" id="Rectangle-Copy" fill-rule="nonzero"></path>
            </g>
            <path d="M59.9406449,25.7919294 C59.9406449,27.3581337 58.6972541,28.5838588 57.0048611,28.5838588 C55.2433908,28.5838588 54,27.3581337 54,25.7919294 C54,24.2257251 55.2433908,23 57.0048611,23 C58.6972541,23 59.9406449,24.2257251 59.9406449,25.7919294 Z" id="Path-Copy" fill-rule="nonzero"></path>
        </g>
    </g>
</svg>