<?xml version="1.0" encoding="UTF-8"?>
<svg width="80px" height="80px" viewBox="0 0 80 80" version="1.1" xmlns="http://www.w3.org/2000/svg" xmlns:xlink="http://www.w3.org/1999/xlink">
    <!-- Generator: Sketch 51.1 (57501) - http://www.bohemiancoding.com/sketch -->
    <title>Group 2</title>
    <desc>Created with Sketch.</desc>
    <defs></defs>
    <g id="thumbnail-and-coverphoto" stroke="none" stroke-width="1" fill="none" fill-rule="evenodd">
        <g id="80x80icon_cloudui-copy">
            <g id="Group-2">
                <circle id="Oval" fill="#6E7AFF" fill-rule="nonzero" cx="40" cy="40" r="40"></circle>
                <path d="M49.907441,30.2377622 C45.7731397,30.2377622 42.5027223,32.9440559 41.8239564,37.7272727 L58.0526316,37.7272727 C57.9292196,33.1328671 54.3502722,30.2377622 49.907441,30.2377622 Z M66.1361162,47.4825175 C64.2849365,53.9020979 58.6079855,59 50.154265,59 C40.2196007,59 33,51.951049 33,41 C33,29.986014 40.0344828,23 50.154265,23 C60.0272232,23 67,29.8601399 67,40.2447552 C67,41.3776224 66.938294,42.5104895 66.753176,43.6433566 L41.7622505,43.6433566 C42.1941924,48.8041958 45.6497278,51.6993007 49.969147,51.6993007 C53.6715064,51.6993007 55.707804,49.8111888 56.8185118,47.4825175 L66.1361162,47.4825175 Z" id="e" fill="#535EDF"></path>
                <path d="M41,48.4895105 C41,54.4685315 35.9478261,59 27.7304348,59 C19.2695652,59 13.3652174,53.9020979 13,47.4195804 L21.5826087,47.4195804 C21.8869565,50.0629371 24.2608696,52.0769231 27.6695652,52.0769231 C31.0173913,52.0769231 32.8434783,50.5034965 32.8434783,48.4895105 C32.8434783,42.2587413 13.7913043,46.2237762 13.7913043,33.4475524 C13.7913043,27.6573427 18.7826087,23 27.1217391,23 C35.2782609,23 40.2086957,27.5944056 40.6956522,34.5174825 L32.5391304,34.5174825 C32.2956522,31.8111888 30.226087,29.986014 26.8782609,29.986014 C23.7130435,29.986014 22.0695652,31.3076923 22.0695652,33.3216783 C22.0695652,39.6783217 40.7565217,35.7132867 41,48.4895105 Z" id="s" fill="#F7F7FA"></path>
            </g>
        </g>
    </g>
</svg>