<?xml version="1.0" encoding="UTF-8"?>
<svg width="126px" height="29px" viewBox="0 0 126 29" version="1.1" xmlns="http://www.w3.org/2000/svg" xmlns:xlink="http://www.w3.org/1999/xlink">
    <!-- Generator: Sketch 51.1 (57501) - http://www.bohemiancoding.com/sketch -->
    <title>serein logo black_02 copy 2</title>
    <desc>Created with Sketch.</desc>
    <defs></defs>
    <g id="serein-logo-black_02-copy-2" stroke="none" stroke-width="1" fill="none" fill-rule="evenodd">
        <g id="Group-Copy-2" fill="#FFFFFF">
            <path d="M53.4765483,21.815889 C53.4765483,25.5611602 50.4371486,28.9319042 44.945506,28.9319042 C39.9374042,28.9319042 36.0690773,26.3442623 36,21.8499369 L41.180795,21.8499369 C41.3189495,23.7566204 42.5968789,25.0163934 44.8418901,25.0163934 C47.1214398,25.0163934 48.4684465,23.8247163 48.4684465,22.1223203 C48.4684465,16.9810845 36.0345386,20.0794451 36.0690773,11.4653216 C36.0690773,7.17528373 39.5920178,4.58764187 44.565581,4.58764187 C49.5046055,4.58764187 52.8893915,7.07313997 53.2002392,11.3631778 L47.8812898,11.3631778 C47.7776739,9.79697352 46.4997444,8.57124842 44.4274265,8.5372005 C42.5278016,8.46910467 41.1117177,9.38839849 41.1117177,11.3291299 C41.1117177,16.0958386 53.4765483,13.4401009 53.4765483,21.815889 Z M73.7353749,19.2622951 C73.7353749,25.186633 69.3144299,29 63.75371,29 C58.2275287,29 54.0483541,25.186633 54.0483541,19.2622951 C54.0483541,13.3039092 58.3656832,9.52459016 63.8918645,9.52459016 C69.4180458,9.52459016 73.7353749,13.3039092 73.7353749,19.2622951 Z M58.95284,19.2622951 C58.95284,23.0075662 61.1633125,24.8461538 63.75371,24.8461538 C66.3095688,24.8461538 68.7618118,23.0075662 68.7618118,19.2622951 C68.7618118,15.482976 66.3786461,13.6784363 63.8227872,13.6784363 C61.2669284,13.6784363 58.95284,15.482976 58.95284,19.2622951 Z M88.2953271,28.6935687 L88.2953271,18.2749054 C88.2953271,15.2446406 86.602934,13.6103405 84.0470752,13.6103405 C81.4221391,13.6103405 79.7297461,15.2446406 79.7297461,18.2749054 L79.7297461,28.6935687 L74.8943374,28.6935687 L74.8943374,9.83102144 L79.7297461,9.83102144 L79.7297461,12.1803279 C80.9731369,10.5800757 83.0454548,9.55863808 85.4976978,9.55863808 C89.9531814,9.55863808 93.1307357,12.4186633 93.1307357,17.627995 L93.1307357,28.6935687 L88.2953271,28.6935687 Z M95.3258572,28.6935687 L95.3258572,9.83102144 L100.161266,9.83102144 L100.161266,28.6935687 L95.3258572,28.6935687 Z M97.7781002,7.58385876 C96.0511685,7.58385876 94.8077777,6.35813367 94.8077777,4.79192938 C94.8077777,3.22572509 96.0511685,2 97.7781002,2 C99.4704932,2 100.748423,3.22572509 100.748423,4.79192938 C100.748423,6.35813367 99.4704932,7.58385876 97.7781002,7.58385876 Z M101.28569,19.2622951 C101.28569,13.3379571 105.223094,9.52459016 110.749275,9.52459016 C115.515607,9.52459016 118.727699,11.9760404 119.763858,16.1979823 L114.548525,16.1979823 C113.995907,14.5977301 112.717977,13.5762926 110.714737,13.5762926 C108.020723,13.5762926 106.224714,15.5851198 106.224714,19.2622951 C106.224714,22.9394704 108.020723,24.9142497 110.714737,24.9142497 C112.717977,24.9142497 113.961368,24.0290038 114.548525,22.3266078 L119.763858,22.3266078 C118.727699,26.3442623 115.515607,29 110.749275,29 C105.223094,29 101.28569,25.186633 101.28569,19.2622951 Z M125.940645,25.7919294 C125.940645,27.3581337 124.697254,28.5838588 123.004861,28.5838588 C121.243391,28.5838588 120,27.3581337 120,25.7919294 C120,24.2257251 121.243391,23 123.004861,23 C124.697254,23 125.940645,24.2257251 125.940645,25.7919294 Z" id="Serein."></path>
            <path d="M13.3446659,0 L20.8314655,-1.11022302e-16 C21.0324476,-1.47942112e-16 21.213895,0.120340244 21.2920806,0.305490996 L33.1159492,28.305491 C33.2233735,28.5598817 33.1042338,28.8531907 32.8498431,28.9606151 C32.7882896,28.9866079 32.7221507,29 32.6553341,29 L25.1685345,29 C24.9675524,29 24.786105,28.8796598 24.7079194,28.694509 L12.8840508,0.694509004 C12.7766265,0.440118323 12.8957662,0.146809282 13.1501569,0.039384925 C13.2117104,0.013392057 13.2778493,-3.76304045e-16 13.3446659,-3.88578059e-16 Z" id="Rectangle" fill-rule="nonzero"></path>
            <path d="M0.770649257,0 L8.73442174,-4.4408921e-16 C8.93174333,-4.80336598e-16 9.11061035,0.116049568 9.19102146,0.296243534 L21.6859505,28.2962435 C21.7984821,28.5484166 21.6852803,28.8440681 21.4331072,28.9565997 C21.368989,28.9852123 21.2995635,29 21.2293507,29 L13.2655783,29 C13.0682567,29 12.8893896,28.8839504 12.8089785,28.7037565 L0.314049539,0.703756466 C0.20151795,0.451583405 0.314719729,0.155931871 0.56689279,0.0434002821 C0.631010998,0.0147876944 0.700436546,-4.31191344e-16 0.770649257,-4.4408921e-16 Z" id="Rectangle-Copy" fill-rule="nonzero"></path>
        </g>
    </g>
</svg>