<?xml version="1.0" encoding="UTF-8"?>
<svg width="192px" height="54px" viewBox="0 0 192 54" version="1.1" xmlns="http://www.w3.org/2000/svg" xmlns:xlink="http://www.w3.org/1999/xlink">
    <!-- Generator: Sketch 51.1 (57501) - http://www.bohemiancoding.com/sketch -->
    <title>Group 3</title>
    <desc>Created with Sketch.</desc>
    <defs></defs>
    <g id="thumbnail-and-coverphoto" stroke="none" stroke-width="1" fill="none" fill-rule="evenodd">
        <g id="logo_full_white-copy-2">
            <g id="Group">
                <g id="Group-3">
                    <g id="Group-2">
                        <circle id="Oval" fill="#6E7AFF" fill-rule="nonzero" cx="27" cy="27" r="27"></circle>
                        <path d="M33.5492426,20.3029827 C30.7351383,20.3029827 28.5090559,22.1255887 28.0470388,25.3469388 L39.0934479,25.3469388 C39.0094448,22.2527473 36.5733546,20.3029827 33.5492426,20.3029827 Z M44.5956517,31.9167975 C43.335605,36.2401884 39.4714619,39.6734694 33.7172488,39.6734694 C26.9549983,39.6734694 22.0408163,34.9262166 22.0408163,27.5510204 C22.0408163,20.133438 26.8289937,15.4285714 33.7172488,15.4285714 C40.4374977,15.4285714 45.1836735,20.0486656 45.1836735,27.0423862 C45.1836735,27.8053375 45.1416719,28.5682889 45.0156672,29.3312402 L28.0050372,29.3312402 C28.2990481,32.8069074 30.6511352,34.7566719 33.5912441,34.7566719 C36.1113375,34.7566719 37.4973888,33.4850863 38.2534168,31.9167975 L44.5956517,31.9167975 Z" id="e" fill="#535EDF"></path>
                        <path d="M27.5510204,32.5949765 C27.5510204,36.6216641 24.17063,39.6734694 18.6724046,39.6734694 C13.0112689,39.6734694 9.0606921,36.2401884 8.81632653,31.8744113 L14.5589175,31.8744113 C14.7625555,33.6546311 16.3509317,35.010989 18.631677,35.010989 C20.8716948,35.010989 22.0935226,33.9513344 22.0935226,32.5949765 C22.0935226,28.3987441 9.34578527,31.0690738 9.34578527,22.4646782 C9.34578527,18.5651491 12.6854481,15.4285714 18.2651287,15.4285714 C23.7226264,15.4285714 27.0215617,18.522763 27.3473824,23.1852433 L21.8898846,23.1852433 C21.7269743,21.3626374 20.342236,20.133438 18.1022183,20.133438 C15.9843833,20.133438 14.8847382,21.0235479 14.8847382,22.3799058 C14.8847382,26.6609105 27.38811,23.9905808 27.5510204,32.5949765 Z" id="s" fill="#F7F7FA"></path>
                    </g>
                    <path d="M81.9602517,35.8398487 C81.9602517,39.9129887 78.3587281,43 72.5008281,43 C66.4693607,43 62.2603511,39.5271122 62,35.110971 L68.1182511,35.110971 C68.3352103,36.9117276 70.0274925,38.2837327 72.4574362,38.2837327 C74.8439881,38.2837327 76.1457436,37.2118537 76.1457436,35.8398487 C76.1457436,31.5952081 62.5640941,34.296343 62.5640941,25.592686 C62.5640941,21.6481715 66.1222259,18.4754098 72.0669096,18.4754098 C77.8814177,18.4754098 81.3961577,21.6052963 81.7432925,26.3215637 L75.9287844,26.3215637 C75.755217,24.4779319 74.279894,23.2345523 71.8933422,23.2345523 C69.6369659,23.2345523 68.4653859,24.1349306 68.4653859,25.5069357 C68.4653859,29.8373266 81.7866843,27.1361917 81.9602517,35.8398487 Z M97.2775754,23.406053 C94.3703213,23.406053 92.0705532,25.2496847 91.5932428,28.5081967 L103.0053,28.5081967 C102.918516,25.3783102 100.401789,23.406053 97.2775754,23.406053 Z M108.689632,35.1538462 C107.387877,39.5271122 103.395826,43 97.4511428,43 C90.4650547,43 85.388208,38.1979823 85.388208,30.7377049 C85.388208,23.2345523 90.3348791,18.4754098 97.4511428,18.4754098 C104.393839,18.4754098 109.297118,23.148802 109.297118,30.223203 C109.297118,30.9949559 109.253726,31.7667087 109.123551,32.5384615 L91.5498509,32.5384615 C91.8535939,36.0542245 94.2835376,38.0264817 97.3209672,38.0264817 C99.9244783,38.0264817 101.356409,36.740227 102.137463,35.1538462 L108.689632,35.1538462 Z M119.797946,30.7805801 L119.797946,42.6141236 L113.723087,42.6141236 L113.723087,18.8612863 L119.797946,18.8612863 L119.797946,22.5485498 C121.316661,20.1046658 123.833389,18.518285 127.174561,18.518285 L127.174561,24.8209332 L125.569063,24.8209332 C121.967539,24.8209332 119.797946,26.1929382 119.797946,30.7805801 Z M141.580656,23.406053 C138.673402,23.406053 136.373634,25.2496847 135.896323,28.5081967 L147.30838,28.5081967 C147.221597,25.3783102 144.704869,23.406053 141.580656,23.406053 Z M152.992713,35.1538462 C151.690957,39.5271122 147.698907,43 141.754223,43 C134.768135,43 129.691289,38.1979823 129.691289,30.7377049 C129.691289,23.2345523 134.63796,18.4754098 141.754223,18.4754098 C148.69692,18.4754098 153.600199,23.148802 153.600199,30.223203 C153.600199,30.9949559 153.556807,31.7667087 153.426631,32.5384615 L135.852931,32.5384615 C136.156674,36.0542245 138.586618,38.0264817 141.624048,38.0264817 C144.227559,38.0264817 145.65949,36.740227 146.440543,35.1538462 L152.992713,35.1538462 Z M158.026168,42.6141236 L158.026168,18.8612863 L164.101027,18.8612863 L164.101027,42.6141236 L158.026168,42.6141236 Z M161.106989,16.0315259 C158.937396,16.0315259 157.37529,14.4880202 157.37529,12.5157629 C157.37529,10.5435057 158.937396,9 161.106989,9 C163.23319,9 164.838688,10.5435057 164.838688,12.5157629 C164.838688,14.4880202 163.23319,16.0315259 161.106989,16.0315259 Z M186.925141,42.6141236 L186.925141,29.4943253 C186.925141,25.6784363 184.79894,23.6204288 181.587943,23.6204288 C178.290162,23.6204288 176.163962,25.6784363 176.163962,29.4943253 L176.163962,42.6141236 L170.089102,42.6141236 L170.089102,18.8612863 L176.163962,18.8612863 L176.163962,21.8196721 C177.726068,19.8045397 180.329579,18.518285 183.410401,18.518285 C189.00795,18.518285 193,22.1197982 193,28.6796974 L193,42.6141236 L186.925141,42.6141236 Z" id="serein-copy" fill="#6E7AFF"></path>
                </g>
            </g>
        </g>
    </g>
</svg>